<svg version="1.1" id="Layer_1" xmlns="http://www.w3.org/2000/svg" xmlns:xlink="http://www.w3.org/1999/xlink" x="0px" y="0px"
	 viewBox="0 0 500 499.8" style="enable-background:new 0 0 500 499.8;" xml:space="preserve">
<style type="text/css">
	.st0{fill:#FFFFFF;}
</style>
<path class="st0" d="M160.1,212.1c-32.2,0-58.5-26.2-58.5-58.5c0-32.2,26.2-58.5,58.5-58.5c15.3,0,29.8,5.9,40.8,16.6
	s17.2,25,17.6,40.3c0.1,3.3-2.5,6.1-5.8,6.2s-6.1-2.5-6.2-5.8c-0.7-25.3-21.1-45.2-46.5-45.2c-25.6,0-46.5,20.9-46.5,46.5
	s20.9,46.5,46.5,46.5c10.8,0,21.3-3.8,29.6-10.7c2.6-2.1,6.3-1.8,8.4,0.8c2.1,2.6,1.8,6.3-0.8,8.4
	C186.9,207.3,173.7,212.1,160.1,212.1z"/>
<g>
	<path class="st0" d="M175.5,179c-1.8,0-3.5-0.8-4.7-2.3c-2.1-2.6-1.6-6.4,1-8.4l0.3-0.2c2.6-2.1,6.3-1.7,8.4,0.8
		c2.1,2.6,1.7,6.3-0.8,8.4c-0.2,0.1-0.3,0.3-0.5,0.4C178.1,178.5,176.8,179,175.5,179z"/>
	<path class="st0" d="M145.7,179.7c-1.2,0-2.4-0.4-3.5-1.1c-0.4-0.3-0.7-0.5-1.1-0.8c-2.6-2.1-3-5.8-1-8.4c2.1-2.6,5.8-3,8.4-1
		c0.2,0.2,0.4,0.3,0.6,0.5c2.7,1.9,3.3,5.7,1.4,8.4C149.4,178.8,147.5,179.7,145.7,179.7z M137.2,150.3c-0.8,0-1.5-0.1-2.3-0.4
		c-3.1-1.3-4.5-4.8-3.3-7.8c0.2-0.4,0.3-0.8,0.5-1.2c1.4-3,5-4.3,8-2.9s4.3,5,2.9,8c-0.1,0.2-0.2,0.5-0.3,0.7
		C141.8,148.9,139.6,150.3,137.2,150.3z M164.9,135.4c-0.4,0-0.8,0-1.2-0.1c-0.3-0.1-0.5-0.1-0.8-0.1c-3.3-0.5-5.5-3.6-5-6.8
		c0.5-3.3,3.6-5.5,6.8-5c0.4,0.1,0.9,0.1,1.3,0.2c3.3,0.6,5.4,3.8,4.7,7.1C170.2,133.4,167.7,135.4,164.9,135.4z"/>
	<path class="st0" d="M184.7,158.2c-3.2,0-5.8-2.5-6-5.6v-0.4c-0.3-3.3,2.2-6.2,5.5-6.5c3.3-0.3,6.2,2.2,6.5,5.5c0,0.2,0,0.4,0,0.6
		c0.2,3.3-2.3,6.1-5.6,6.3C185,158.2,184.9,158.2,184.7,158.2z"/>
</g>
<path class="st0" d="M268.8,219.2c-1.4,0-2.8-0.5-3.9-1.4c-2.5-2.1-2.8-5.9-0.7-8.5l78-91.5c2.1-2.5,5.9-2.8,8.5-0.7
	c2.5,2.1,2.8,5.9,0.7,8.5l-77.9,91.5C272.2,218.5,270.5,219.2,268.8,219.2z"/>
<path class="st0" d="M351.3,129.4c-7.1,0-12.8-5.7-12.8-12.8s5.7-12.8,12.8-12.8c7.1,0,12.8,5.7,12.8,12.8S358.3,129.4,351.3,129.4z
	 M351.3,115.8c-0.4,0-0.8,0.4-0.8,0.8s0.4,0.8,0.8,0.8s0.8-0.4,0.8-0.8S351.7,115.8,351.3,115.8z"/>
<path class="st0" d="M308.6,428.5h-81.7c-3.3,0-6-2.7-6-6s2.7-6,6-6h81.7c3.3,0,6,2.7,6,6S311.9,428.5,308.6,428.5z"/>
<path class="st0" d="M269.5,428.5c-3.3,0-6-2.7-6-6V290.1L155,155.9c-1.5-1.8-1.7-4.3-0.8-6.4s3.1-3.4,5.4-3.4h220.7
	c2.3,0,4.4,1.3,5.4,3.4s0.7,4.6-0.8,6.4L275.5,290.1v132.4C275.5,425.8,272.8,428.5,269.5,428.5z M172.2,158.2l97.3,120.3
	l98.2-120.3C367.7,158.2,172.2,158.2,172.2,158.2z"/>
<path class="st0" d="M250,500c-66.8,0-129.6-26-176.8-73.2C26,379.6,0,316.8,0,250c0-66.8,26-129.6,73.2-176.8
	C120.4,26,183.2,0,250,0s129.6,26,176.8,73.2S500,183.2,500,250c0,66.8-26,129.6-73.2,176.8S316.8,500,250,500z M250,17
	c-62.2,0-120.7,24.2-164.8,68.2C41.2,129.3,17,187.8,17,250c0,62.2,24.2,120.7,68.2,164.8c44,44,102.5,68.2,164.8,68.2
	c62.2,0,120.7-24.2,164.8-68.2S483,312.2,483,250c0-62.2-24.2-120.7-68.2-164.8S312.2,17,250,17z"/>
</svg>
